<?xml version="1.0" standalone="no"?>
<!DOCTYPE svg PUBLIC "-//W3C//DTD SVG 20010904//EN"
 "http://www.w3.org/TR/2001/REC-SVG-20010904/DTD/svg10.dtd">
<svg version="1.0" xmlns="http://www.w3.org/2000/svg"
 width="300.000000pt" height="300.000000pt" viewBox="0 0 300.000000 300.000000"
 preserveAspectRatio="xMidYMid meet">
<metadata>
Created by potrace 1.11, written by Peter Selinger 2001-2013
</metadata>
<g transform="translate(0.000000,300.000000) scale(0.100000,-0.100000)"
fill="#000000" stroke="none">
<path d="M379 2985 c-174 -46 -310 -182 -363 -363 -12 -41 -12 -54 -3 -58 7
-2 152 -3 322 -2 l310 3 0 218 0 218 -110 -2 c-60 -1 -131 -7 -156 -14z"/>
<path d="M863 1500 l0 -1500 847 0 c921 0 899 -1 1020 57 72 35 178 141 214
214 58 119 56 74 56 1214 0 716 -3 1069 -11 1110 -33 183 -182 340 -369 389
-46 12 -197 15 -906 15 l-850 1 -1 -1500z m1763 425 l-1 -180 -215 -1 c-118
-1 -220 -2 -225 -3 -7 -1 -10 -183 -10 -539 l0 -537 -225 0 -225 0 -1 526 c0
290 -3 533 -6 540 -5 12 -46 14 -227 13 l-221 0 0 176 c0 97 2 179 4 181 3 2
308 4 679 4 l674 0 -1 -180z"/>
<path d="M0 2285 l0 -75 322 2 322 3 1 70 0 70 -322 3 -323 2 0 -75z"/>
<path d="M0 1228 c1 -511 5 -800 11 -833 38 -179 195 -339 373 -380 29 -7 100
-13 157 -14 l104 -2 0 1003 0 1003 -323 3 -322 2 0 -782z"/>
</g>
</svg>
